<?xml version="1.0" encoding="UTF-8" standalone="no"?>
<!DOCTYPE svg PUBLIC "-//W3C//DTD SVG 1.1//EN"
"http://www.w3.org/Graphics/SVG/1.1/DTD/svg11.dtd">


<!-- Page 1 -->
<svg x="0" y="0" width="1286" height="909" viewBox="0 0 1286 909" version="1.1" xmlns="http://www.w3.org/2000/svg" xmlns:xlink="http://www.w3.org/1999/xlink"
style="display: block;margin-left: auto;margin-right: auto;">
<defs>

<style type="text/css"><![CDATA[
text { white-space: pre; }
path, image { pointer-events: none; }

.s1_1{
font-size: 14.12px;
	font-family: Arial;
fill: #FFFFFF;
}

.s2_1{
font-size: 14.12px;
	font-family: Arial;
fill: #000000;
}

.s3_1{
font-size: 14.12px;
	font-family: Arial;
fill: #FFFFFF;
}

.g0_1{
fill: #FFC000;
}
.g1_1{
fill: #7030A0;
}
.g2_1{
fill: #0070C0;
}
.g3_1{
fill: #4472C4;
}
.g4_1{
fill: #00B050;
}
.g5_1{
fill: #FF0000;
}
.g6_1{
fill: #806000;
}
.g7_1{
fill: #FFFF00;
}
.g8_1{
fill: #A9D08E;
}
.g9_1{
}

]]></style>

</defs>
<path d="M0,0
L0,909
L1286,909
L1286,0 Z " 
fill="#FFFFFF" stroke="none" />
<path d="M29,84H1256.8v18.1H29Z" class="g0_1" />
<path d="M29,101.9H98.3v18.9H29Z" class="g1_1" />
<path d="M98.1,101.9H257.6v18.9H98.1Z" class="g2_1" />
<path d="M257.4,101.9h999.4v18.9H257.4Z" class="g3_1" />
<path d="M29,120.6H1256.8v18.9H29Z" class="g4_1" />
<path d="M29,139.3H98.3v56.3H29Z" class="g1_1" />
<path d="M98.1,139.3H1256.8v56.3H98.1Z" class="g5_1" />
<path d="M29,195.4H1256.8v18.9H29Z" class="g4_1" />
<path d="M29,214.1H98.3v56.3H29Z" class="g1_1" />
<path d="M98.1,214.1H1256.8v56.3H98.1Z" class="g6_1" />
<path d="M29,270.2H1256.8v18.9H29Z" class="g4_1" />
<path d="M29,288.9H98.3v56.3H29Z" class="g1_1" />
<path d="M98.1,288.9H1256.8v56.3H98.1Z" class="g7_1" />
<path d="M29,345H1256.8v18.9H29Z" class="g4_1" />
<path d="M29,363.7H98.3V420H29Z" class="g1_1" />
<path d="M98.1,363.7H1256.8V420H98.1Z" class="g2_1" />
<path d="M29,419.8H1256.8v18.9H29Z" class="g4_1" />
<path d="M29,438.5H98.3v56.9H29Z" class="g1_1" />
<path d="M98.1,438.5H1256.8v56.9H98.1Z" class="g8_1" />
<text x="37" y="115" dx="0,0.1,0,0.1,0,0.1,0,-0.1" class="s1_1">Horários</text>
<text x="150" y="115" dx="0,-0.1,0,0,0,0.2,-0.1" class="s1_1">Segunda</text>
<text x="337" y="115" dx="0,0,0,0.1,0.1" class="s1_1">Terça</text>
<text x="536" y="115" dx="0,0,0,0,0.1,0" class="s1_1">Quarta</text>
<text x="831" y="115" dx="0,0,0,0.1,0,-0.1" class="s1_1">Quinta</text>
<text x="1103" y="115" dx="0,-0.1,0,-0.1,-0.1" class="s1_1">Sexta</text>
<text x="1204" y="115" dx="0,-0.1,0,0,0,0" class="s1_1">Sábado</text>
<text x="35" y="153" dx="0,0,0,0,-0.1,0,0.2,-0.1,0" class="s1_1">8 - 11:40</text>
<text x="459" y="153" dx="0,-0.1,0.1,0,0,0,-0.1,0,0,0,0,-0.1,0,0,0.1,0,0,0,0,0,0,0,-0.1,0,0,0,0.1,0,-0.1,0.2,-0.1" class="s1_1">Projeto e Análise de Algoritmos</text>
<text x="670" y="153" dx="0,0,0,0,0.1,0,0,-0.1,0,0.2,-0.1,0.1,-0.1,0.2,0,0,0,0,0.1,0,0,-0.1,0,0,0,0,0,0,0.2,-0.1,0,0,0.1,0,0,0,0.1,0.1,0,0.1,0,0,0,-0.1,0,0,-0.1,0,0.2,0,-0.1,0" class="s1_1">Teoria da Computação, Linguagens Formais e Autômatos</text>
<text x="1048" y="153" dx="0,-0.1,0.1,0,-0.1,0,0.2,0,0.1,-0.1,0,0,0,0.2,-0.1,0.1,0,0,0,0,0.1" class="s1_1">Sistemas Operacionais</text>
<text x="32" y="171" dx="0,0,0,0,0.1,-0.1,0,0,0,0" class="s1_1">14 - 17:40</text>
<text x="290" y="171" dx="0,0.1,0,0.2,-0.1,0,0,0,0.1,0,0,0,0,0.1,0,0.2,0,0" class="s1_1">Computação Gráfica</text>
<text x="462" y="171" dx="0,-0.1,0,0,0,0.1,0.2,0,0.1,-0.1,0,0.1,-0.1,0.2,0,0.2,-0.1,0.1,-0.1,0.2,0,0,0,0,0,0" class="s1_1">Interface Homem Computador</text>
<text x="755" y="171" dx="0,0.1,0,0,0.1,0,0,0,-0.1,0.1,0,0.2,-0.1,0.1,0,0,0.1,0,0,0,0,0,-0.1,-0.1,0,0,0,0,0.1,0,0.1,-0.1" class="s1_1">Cálculo Diferencial e Integral 1</text>
<text x="32" y="190" dx="0,0,0,0,0.1,-0.1,0,0,0,0" class="s1_1">19 - 22:40</text>
<text x="35" y="228" dx="0,0,0,0,-0.1,0,0.2,-0.1,0" class="s1_1">8 - 11:40</text>
<text x="157" y="228" dx="0,-0.1,0,0,-0.1,0.1,0" class="s1_1">Eletiva</text>
<text x="470" y="228" dx="0,-0.1,0.1,0,0.1,-0.1,0.1,0.1,0,0.1,0,0,0,0,0,0,0,0,-0.1,0.2,0,0,0,0" class="s1_1">Processamento de Imagens</text>
<text x="752" y="228" dx="0,0,-0.1,0.1,0,0.1,-0.1,0,0,0,0,0.1,0,0.1,-0.1,0,0,-0.1,0,-0.3,0,0,0.1,0,0.2,-0.1,0,0,0,0,-0.1" class="s1_1">Física Teórica e Experimental 1</text>
<text x="32" y="246" dx="0,0,0,0,0.1,-0.1,0,0,0,0" class="s1_1">14 - 17:40</text>
<text x="134" y="246" dx="0,0.1,0,0.2,0,0,0,0,0,0,0.1,0" class="s1_1">Compiladores</text>
<text x="329" y="246" class="s1_1">Optativa</text>
<text x="1052" y="246" dx="0,-0.1,0,0.1,0,0,0,0.1,0,-0.1,0,0,0,0.2,-0.1,0.1,0,0,0,0" class="s1_1">Pesquisa Operacional</text>
<text x="32" y="265" dx="0,0,0,0,0.1,-0.1,0,0,0,0" class="s1_1">19 - 22:40</text>
<text x="35" y="302" dx="0,0,0,0,-0.1,0,0.2,-0.1,0" class="s1_1">8 - 11:40</text>
<text x="301" y="302" dx="0,-0.1,0,0.1,-0.1,0,0.2,0,0.1,-0.1,0.1,0,-0.1,0,-0.1,0,0.1" class="s2_1">Sistemas Digitais</text>
<text x="496" y="302" dx="0,0,0.1,0,0.1,0,0,0.2,0,0,0,0,0.1,0,0.1,0.1" class="s2_1">Empreendedorismo</text>
<text x="789" y="302" dx="0,0,0,-0.1,0,0.1,0,-0.1,0,0,0.1,0,0,0,-0.1,0.1,-0.1,0,0.2,0,0,0,0" class="s2_1">Inteligência Artificial</text>
<text x="32" y="321" dx="0,0,0,0,0.1,-0.1,0,0,0,0" class="s1_1">14 - 17:40</text>
<text x="752" y="321" dx="0,0,-0.1,0.1,0,0,0,0,0,0,0,0.1,0,0.1,0,-0.1,0,0,-0.1,-0.3,0,0,0.2,0,0.1,0,0,0,0,0,-0.1" class="s2_1">Física Teórica e Experimental 2</text>
<text x="1046" y="321" dx="0,0.1,0,0,0,0,0,0,0,0.1,0,0.2,0,0,-0.1,0,0,0.2,0,0" class="s2_1">Rede de Computadores</text>
<text x="32" y="340" dx="0,0,0,0,0.1,-0.1,0,0,0,0" class="s1_1">19 - 22:40</text>
<text x="35" y="377" dx="0,0,0,0,-0.1,0,0.2,-0.1,0" class="s1_1">8 - 11:40</text>
<text x="104" y="377" dx="0,-0.1,0.1,-0.1,0,0,0.1,0,-0.1,0,0,0,0,0.1,0.1,0,0.1,0,-0.1,0,0,0.2" class="s1_1">Estágio Supervisionado</text>
<text x="461" y="377" dx="0,0.1,0,0,0.1,0,0,0,-0.1,0.1,0,0.2,-0.1,0.1,0,0,0.1,0,0,0,-0.1,0,0,-0.1,0,0,0,0,0.1,0,0.1,-0.1" class="s1_1">Cálculo Diferencial e Integral 2</text>
<text x="32" y="396" dx="0,0,0,0,0.1,-0.1,0,0,0,0" class="s1_1">14 - 17:40</text>
<text x="109" y="396" dx="0,0,0,0,0,0,0.1,0,0.1,0,0.1,0,0,-0.1,0.1,0,0,0,0,0,0" class="s1_1">Sistemas Distribuídos</text>
<text x="329" y="396" dx="0,0,0,0,0,-0.1,0.1,0" class="s1_1">Optativa</text>
<text x="1046" y="396" dx="0,-0.1,0.1,0,0,0,-0.1,0,0,0,0,0,0,0.1,0,0,0,0.2,0,0,0,0" class="s1_1">Projeto de Graduação 1</text>
<text x="32" y="415" dx="0,0,0,0,0.1,-0.1,0,0,0,0" class="s1_1">19 - 22:40</text>
<text x="35" y="452" dx="0,0,0,0,-0.1,0,0.2,-0.1,0" class="s1_1">8 - 11:40</text>
<text x="32" y="471" dx="0,0,0,0,0.1,-0.1,0,0,0,0" class="s1_1">14 - 17:40</text>
<text x="263" y="471" dx="0,0.1,0,0,0.1,0,0,0,-0.1,0,0,-0.1,0,0.1,0.1,-0.1,0,0,0,-0.1,0,0,0,0.1,0,-0.1,0,0.1,0" class="s1_1">Cálculo Vetorial e Otimização</text>
<text x="1046" y="471" dx="0,-0.1,0.1,0,0,0,0,0,-0.1,0,0,0,0,0.1,0,0,0,0.2,0,0,0,0" class="s1_1">Projeto de Graduação 2</text>
<text x="32" y="489" dx="0,0,0,0,0.1,-0.1,0,0,0,0" class="s1_1">19 - 22:40</text>
<text x="1065" y="489" dx="0,0.1,0,0,0,0,0.1,0,-0.1,0.1,0,0.2,0,0.1,0,0" class="s1_1">Cálculo Numérico</text>
<text x="617" y="433" dx="0,0,0,0,0.2,-0.1,0.1,-0.1" class="s1_1">2020 - 2</text>
<text x="617" y="134" dx="0,0,0,0,0.2,-0.1,0.1,-0.1" class="s1_1">2018 - 2</text>
<text x="556" y="97" dx="0,-0.1,0,0,0,0,-0.2,0,0,0,0,0.1,0,-0.1,0,0,-0.1,0.1,0,0,0,0,0,0" class="s3_1">Planejamento de Horários</text>
<text x="617" y="209" dx="0,0,0,0,0.2,-0.1,0.1,-0.1" class="s1_1">2019 - 1</text>
<text x="617" y="284" dx="0,0,0,0,0.2,-0.1,0.1,-0.1" class="s1_1">2019 - 2</text>
<text x="617" y="358" dx="0,0,0,0,0.2,-0.1,0.1,-0.1" class="s1_1">2020 - 1</text>
<path fill-rule="evenodd" d="M27.1,82.1h2.4V496.5H27.1Zm1228.4,2.4h2.4v412h-2.4Z" class="g9_1" />
<path fill-rule="evenodd" d="M29.5,82.1H1257.9v2.4H29.5Zm0,412H1257.9v2.4H29.5Z" class="g9_1" />


<!-- Any embedded fonts defined here -->
<style type="text/css" ><![CDATA[

@font-face {
	font-family: Arial;
	src: url("fonts/CIDFont-F1_b.woff") format("woff");	
}

@font-face {
	font-family: Arial;
	src: url("fonts/CIDFont-F2_j.woff") format("woff");
}

]]></style>

</svg>
