<?xml version="1.0" encoding="UTF-8" standalone="no"?>
<svg
   xmlns:dc="http://purl.org/dc/elements/1.1/"
   xmlns:cc="http://creativecommons.org/ns#"
   xmlns:rdf="http://www.w3.org/1999/02/22-rdf-syntax-ns#"
   xmlns:svg="http://www.w3.org/2000/svg"
   xmlns="http://www.w3.org/2000/svg"
   viewBox="0 0 1122.5601 793.76001"
   height="793.76001"
   width="1122.5601"
   xml:space="preserve"
   id="svg2"
   version="1.1"><metadata
     id="metadata8"><rdf:RDF><cc:Work
         rdf:about=""><dc:format>image/svg+xml</dc:format><dc:type
           rdf:resource="http://purl.org/dc/dcmitype/StillImage" /></cc:Work></rdf:RDF></metadata><defs
     id="defs6"><clipPath
       id="clipPath196"
       clipPathUnits="userSpaceOnUse"><path
         style="clip-rule:evenodd"
         id="path194"
         d="m 28.16,416 h 55.52 v 13.60001 H 28.16 Z" /></clipPath><clipPath
       id="clipPath208"
       clipPathUnits="userSpaceOnUse"><path
         style="clip-rule:evenodd"
         id="path206"
         d="M 923.03998,416 H 1020.8 v 13.60001 h -97.76002 z" /></clipPath></defs><g
     transform="translate(0,2.0510667e-5)"
     id="g10"><g
       id="g12"><path
         id="path14"
         style="fill:#ffc000;fill-opacity:1;fill-rule:nonzero;stroke:none"
         d="M 25.280001,73.279999 H 1088.3199 V 89.120003 H 25.280001 Z" /></g><g
       id="g16"><path
         id="path18"
         style="fill:#7030a0;fill-opacity:1;fill-rule:nonzero;stroke:none"
         d="M 25.280001,88.959999 H 86.239998 V 105.44 H 25.280001 Z" /></g><g
       id="g20"><path
         id="path22"
         style="fill:#0070c0;fill-opacity:1;fill-rule:nonzero;stroke:none"
         d="M 86.080002,88.959999 H 221.75999 V 105.44 H 86.080002 Z" /></g><g
       id="g24"><path
         id="path26"
         style="fill:#4472c4;fill-opacity:1;fill-rule:nonzero;stroke:none"
         d="M 221.60001,88.959999 H 1088.3199 V 105.44 H 221.60001 Z" /></g><g
       id="g28"><path
         id="path30"
         style="fill:#00b050;fill-opacity:1;fill-rule:nonzero;stroke:none"
         d="M 25.280001,105.28 H 1088.3199 v 16.48 H 25.280001 Z" /></g><g
       id="g32"><path
         id="path34"
         style="fill:#7030a0;fill-opacity:1;fill-rule:nonzero;stroke:none"
         d="m 25.280001,121.6 h 60.959997 v 49.12 H 25.280001 Z" /></g><g
       id="g36"><path
         id="path38"
         style="fill:#ff0000;fill-opacity:1;fill-rule:nonzero;stroke:none"
         d="M 86.080002,121.6 H 1088.3199 v 49.12 H 86.080002 Z" /></g><g
       id="g40"><path
         id="path42"
         style="fill:#00b050;fill-opacity:1;fill-rule:nonzero;stroke:none"
         d="M 25.280001,170.56 H 1088.3199 v 16.47999 H 25.280001 Z" /></g><g
       id="g44"><path
         id="path46"
         style="fill:#7030a0;fill-opacity:1;fill-rule:nonzero;stroke:none"
         d="M 25.280001,186.88 H 86.239998 V 236 H 25.280001 Z" /></g><g
       id="g48"><path
         id="path50"
         style="fill:#806000;fill-opacity:1;fill-rule:nonzero;stroke:none"
         d="M 86.080002,186.88 H 1088.3199 V 236 H 86.080002 Z" /></g><g
       id="g52"><path
         id="path54"
         style="fill:#00b050;fill-opacity:1;fill-rule:nonzero;stroke:none"
         d="M 25.280001,235.84 H 1088.3199 v 16.48001 H 25.280001 Z" /></g><g
       id="g56"><path
         id="path58"
         style="fill:#7030a0;fill-opacity:1;fill-rule:nonzero;stroke:none"
         d="m 25.280001,252.16 h 60.959997 v 49.12 H 25.280001 Z" /></g><g
       id="g60"><path
         id="path62"
         style="fill:#ffff00;fill-opacity:1;fill-rule:nonzero;stroke:none"
         d="M 86.080002,252.16 H 1088.3199 v 49.12 H 86.080002 Z" /></g><g
       id="g64"><path
         id="path66"
         style="fill:#00b050;fill-opacity:1;fill-rule:nonzero;stroke:none"
         d="M 25.280001,301.12 H 1088.3199 v 16.48001 H 25.280001 Z" /></g><g
       id="g68"><path
         id="path70"
         style="fill:#7030a0;fill-opacity:1;fill-rule:nonzero;stroke:none"
         d="m 25.280001,317.44 h 60.959997 v 49.12 H 25.280001 Z" /></g><g
       id="g72"><path
         id="path74"
         style="fill:#0070c0;fill-opacity:1;fill-rule:nonzero;stroke:none"
         d="M 86.080002,317.44 H 1088.3199 v 49.12 H 86.080002 Z" /></g><g
       id="g76"><path
         id="path78"
         style="fill:#00b050;fill-opacity:1;fill-rule:nonzero;stroke:none"
         d="M 25.280001,366.39999 H 1088.3199 V 382.88 H 25.280001 Z" /></g><g
       id="g80"><path
         id="path82"
         style="fill:#7030a0;fill-opacity:1;fill-rule:nonzero;stroke:none"
         d="m 25.280001,382.72 h 60.959997 v 49.60001 H 25.280001 Z" /></g><g
       id="g84"><path
         id="path86"
         style="fill:#a9d08e;fill-opacity:1;fill-rule:nonzero;stroke:none"
         d="M 86.080002,382.72 H 1088.3199 v 49.60001 H 86.080002 Z" /></g><g
       id="g88"><text
         id="text92"
         style="font-variant:normal;font-weight:normal;font-size:12.31949997px;font-family:F1;-inkscape-font-specification:F1;writing-mode:lr-tb;fill:#ffffff;fill-opacity:1;fill-rule:nonzero;stroke:none"
         transform="translate(32.48,101.12)"><tspan
           id="tspan90"
           y="0"
           x="0 8.9932346 15.844754 20.033384 26.884903 31.073532 33.810532 40.586254 97.255959 105.38683 112.23834 119.26046 126.03619 132.88771 139.73923 258.86877 266.39404 273.24554 277.43417 283.71713 432.29028 441.8728 448.7243 455.57584 459.88766 463.21393 688.0448 697.62732 704.47882 707.21582 714.06732 717.39362 923.86841 931.99927 938.85083 944.76416 948.18689 1011.5092 1019.64 1026.4916 1033.343 1040.3651 1047.1409">HoráriosSegundaTerçaQuartaQuintaSextaSábado</tspan></text>
</g><g
       id="g94"><text
         id="text98"
         style="font-variant:normal;font-weight:normal;font-size:12.31949997px;font-family:F1;-inkscape-font-specification:F1;writing-mode:lr-tb;fill:#ffffff;fill-opacity:1;fill-rule:nonzero;stroke:none"
         transform="translate(31.68,133.75999)"><tspan
           id="tspan96"
           y="0"
           x="0 6.8515186 10.27427 14.37676 17.703026 24.554544 31.576658 34.902924 41.754444 365.88049 374.0975 378.28613 385.06186 387.89532 394.67105 398.09381 404.94534 408.27161 415.12311 418.54587 426.67673 433.52826 440.37979 443.21326 445.95026 452.11002 458.96152 462.38428 469.23581 476.08731 479.51007 487.64093 490.37793 497.22946 504.08096 508.26959 511.00659 514.33289 524.80444 531.65594 548.28729 555.8125 562.66406 569.51556 573.70422 576.44122 583.29272 586.71545 593.56696 600.41852 603.84125 612.83447 619.61023 630.08179 636.93329 643.78485 647.20758 654.05908 660.34204 667.19354 674.0451 677.37134 680.79407 687.64563 690.38263 697.23413 704.08563 710.93719 717.95929 724.73499 731.58655 738.60864 744.76837 748.09467 755.61987 762.47144 766.66003 777.13165 783.98315 786.72015 793.00311 796.32935 803.18085 806.50714 814.72412 821.57568 824.90192 831.75348 842.22504 849.07654 852.49927 859.35083 876.59808 884.729 887.56244 893.72223 897.04846 903.90002 914.37158 921.22308 927.50604 930.83228 940.41479 947.2663 954.11786 958.42969 965.20538 971.48834 974.22534 981.07684 987.92841 994.77991 997.6134">8 - 11:40Projeto e Análise de AlgoritmosTeoria da Computação, Linguagens Formais e AutômatosSistemas Operacionais</tspan></text>
</g><g
       id="g100"><text
         id="text104"
         style="font-variant:normal;font-weight:normal;font-size:12.31949997px;font-family:F1;-inkscape-font-specification:F1;writing-mode:lr-tb;fill:#ffffff;fill-opacity:1;fill-rule:nonzero;stroke:none"
         transform="translate(28.16,150.08)"><tspan
           id="tspan102"
           y="0"
           x="0 6.8515186 13.703037 17.12579 21.314419 24.640684 31.492203 38.343723 41.766472 48.617992 222.19975 231.19298 238.04449 248.51608 255.3676 262.21912 265.54538 272.39691 278.67984 285.53137 292.38287 295.80563 305.38812 309.57675 316.42828 320.00095 322.73795 328.89767 372.13913 375.46539 382.31693 385.73965 392.59119 396.77982 400.35248 407.20398 413.48694 420.26266 423.68542 432.67865 439.45438 449.92593 456.77747 467.24905 470.57532 479.56854 486.34427 496.81583 503.66736 510.51889 513.94165 520.79315 527.64465 534.49615">14 - 17:40Computação GráficaInterface Homem Computador</tspan></text>
</g><g
       id="g106"><text
         id="text110"
         style="font-variant:normal;font-weight:normal;font-size:12.31949997px;font-family:F1;-inkscape-font-specification:F1;writing-mode:lr-tb;fill:#ffffff;fill-opacity:1;fill-rule:nonzero;stroke:none"
         transform="translate(28.16,166.39999)"><tspan
           id="tspan108"
           y="0"
           x="0 6.8515186 13.703037 17.12579 21.314419 24.640684 31.492203 38.343723 41.766472 48.617992 371.38889 380.28564 387.13715 389.97064 396.1304 402.9819 405.8154 412.59113 416.01389 425.00711 427.74411 431.16687 438.01837 442.207 449.05853 455.91003 462.19299 464.92999 471.78149 474.61499 477.94125 484.79279 488.11905 491.54181 498.39331 501.71957 508.57111 515.42261 519.73444 526.51019 529.24719 532.57343">19 - 22:40Cálculo Diferencial e Integral 1</tspan></text>
</g><g
       id="g112"><text
         id="text116"
         style="font-variant:normal;font-weight:normal;font-size:12.31949997px;font-family:F1;-inkscape-font-specification:F1;writing-mode:lr-tb;fill:#ffffff;fill-opacity:1;fill-rule:nonzero;stroke:none"
         transform="translate(31.68,199.03999)"><tspan
           id="tspan114"
           y="0"
           x="0 6.8515186 10.27427 14.37676 17.703026 24.554544 31.576658 34.902924 41.754444 104.3375 112.46838 115.20537 122.05689 125.38316 128.21664 134.37639 374.85303 382.98389 387.17252 394.02405 400.30701 407.15851 413.44147 419.7244 426.50012 436.97171 443.82321 450.67474 454.0975 460.94901 464.27527 471.1268 477.9783 481.40106 484.82382 495.17221 502.02371 508.87524 515.72675 522.74884 620.31934 627.84454 631.17084 637.45374 640.19073 646.35052 653.20203 656.62476 664.15002 671.00153 677.85303 682.04169 684.77869 691.06165 697.91315 701.23944 708.09094 711.51367 719.64453 725.55792 732.40942 739.26093 743.44958 746.28308 756.63147 763.48297 770.33447 773.75726 780.60876 783.34576 786.672">8 - 11:40EletivaProcessamento de ImagensFísica Teórica e Experimental 1</tspan></text>
</g><g
       id="g118"><text
         id="text122"
         style="font-variant:normal;font-weight:normal;font-size:12.31949997px;font-family:F1;-inkscape-font-specification:F1;writing-mode:lr-tb;fill:#ffffff;fill-opacity:1;fill-rule:nonzero;stroke:none"
         transform="translate(28.16,215.36)"><tspan
           id="tspan120"
           y="0"
           x="0 6.8515186 13.703037 17.12579 21.314419 24.640684 31.492203 38.343723 41.766472 48.617992 88.04039 96.937141 103.78866 114.26023 121.11176 123.84875 126.58575 133.43727 140.28879 147.1403 151.32893 158.18045 256.12048 265.70297 272.5545 275.97726 282.82877 286.25153 288.98853 295.14828 883.40442 891.53528 898.38678 904.66974 911.52124 918.37274 921.10974 927.3927 934.2442 937.5705 947.15302 954.00452 960.85602 965.16785 971.9436 978.2265 980.9635 987.81506 994.66656 1001.5181">14 - 17:40CompiladoresOptativaPesquisa Operacional</tspan></text>
</g><g
       id="g124"><text
         id="text128"
         style="font-variant:normal;font-weight:normal;font-size:12.31949997px;font-family:F1;-inkscape-font-specification:F1;writing-mode:lr-tb;fill:#ffffff;fill-opacity:1;fill-rule:nonzero;stroke:none"
         transform="translate(28.16,231.67999)"><tspan
           id="tspan126"
           y="0"
           x="0 6.8515186 13.703037 17.12579 21.314419 24.640684 31.492203 38.343723 41.766472 48.617992">19 - 22:40</tspan></text>
</g><g
       id="g130"><text
         id="text134"
         style="font-variant:normal;font-weight:normal;font-size:12.31949997px;font-family:F1;-inkscape-font-specification:F1;writing-mode:lr-tb;fill:#ffffff;fill-opacity:1;fill-rule:nonzero;stroke:none"
         transform="translate(31.68,264.32001)"><tspan
           id="tspan132"
           y="0"
           x="0 6.8515186 10.27427 14.37676 17.703026 24.554544 31.576658 34.902924 41.754444">8 - 11:40</tspan></text>
</g><g
       id="g136"><text
         id="text140"
         style="font-variant:normal;font-weight:normal;font-size:12.31949997px;font-family:F1;-inkscape-font-specification:F1;writing-mode:lr-tb;fill:#000000;fill-opacity:1;fill-rule:nonzero;stroke:none"
         transform="translate(259.84,264.32001)"><tspan
           id="tspan138"
           y="0"
           x="0 8.1308699 10.867868 17.150814 20.477077 27.328598 37.800171 44.651691 50.934635 54.260902 63.254135 65.991135 72.766861 75.50386 78.830124 85.681641 88.515129 169.70064 177.91765 188.26602 195.11754 199.30617 206.15768 213.0092 220.03133 226.88284 233.73436 240.58588 247.43739 251.62602 254.36302 260.64597 270.99435 424.37213 427.69839 434.5499 437.87619 444.72769 447.56119 450.29819 457.07391 463.92542 470.77695 477.05988 479.89337 486.6691 490.09186 498.22272 502.41135 505.73761 508.47461 512.04724 514.78424 520.94403 523.68103 530.53253">Sistemas DigitaisEmpreendedorismoInteligência Artificial</tspan></text>
</g><g
       id="g142"><text
         id="text146"
         style="font-variant:normal;font-weight:normal;font-size:12.31949997px;font-family:F1;-inkscape-font-specification:F1;writing-mode:lr-tb;fill:#ffffff;fill-opacity:1;fill-rule:nonzero;stroke:none"
         transform="translate(28.16,280.64001)"><tspan
           id="tspan144"
           y="0"
           x="0 6.8515186 13.703037 17.12579 21.314419 24.640684 31.492203 38.343723 41.766472 48.617992">14 - 17:40</tspan></text>
</g><g
       id="g148"><text
         id="text152"
         style="font-variant:normal;font-weight:normal;font-size:12.31949997px;font-family:F1;-inkscape-font-specification:F1;writing-mode:lr-tb;fill:#000000;fill-opacity:1;fill-rule:nonzero;stroke:none"
         transform="translate(652,280.64001)"><tspan
           id="tspan150"
           y="0"
           x="0 7.5252414 10.851506 17.134451 19.87145 26.0312 32.882717 36.30547 43.830711 50.682232 57.533749 61.722378 64.459381 70.742325 77.593842 80.920105 87.771622 91.194374 99.325249 105.23861 112.09013 118.94164 123.25347 125.99047 136.33885 143.19037 150.04189 153.46463 160.31616 163.05316 166.37943 254.21745 263.21069 270.06219 276.91373 283.76526 287.18799 294.03952 300.89102 304.31378 313.30701 320.15854 330.50693 337.35843 344.20996 347.63272 354.48422 361.33575 368.35785 372.46036 379.31186">Física Teórica e Experimental 2Rede de Computadores</tspan></text>
</g><g
       id="g154"><text
         id="text158"
         style="font-variant:normal;font-weight:normal;font-size:12.31949997px;font-family:F1;-inkscape-font-specification:F1;writing-mode:lr-tb;fill:#ffffff;fill-opacity:1;fill-rule:nonzero;stroke:none"
         transform="translate(28.16,296.95999)"><tspan
           id="tspan156"
           y="0"
           x="0 6.8515186 13.703037 17.12579 21.314419 24.640684 31.492203 38.343723 41.766472 48.617992">19 - 22:40</tspan></text>
</g><g
       id="g160"><text
         id="text164"
         style="font-variant:normal;font-weight:normal;font-size:12.31949997px;font-family:F1;-inkscape-font-specification:F1;writing-mode:lr-tb;fill:#ffffff;fill-opacity:1;fill-rule:nonzero;stroke:none"
         transform="translate(31.68,329.60001)"><tspan
           id="tspan162"
           y="0"
           x="0 6.8515186 10.27427 14.37676 17.703026 24.554544 31.576658 34.902924 41.754444 57.892986 66.023857 72.306801 75.633064 82.484589 89.336105 92.169594 99.021111 102.34737 110.56438 117.4159 124.26743 131.11894 135.30757 141.59052 144.32751 150.61046 153.34746 160.12318 166.9747 173.82622 180.84833 367.85834 376.85159 383.62732 386.36429 392.64725 399.49878 402.23578 409.08728 412.41354 421.4068 424.14377 427.71643 434.56796 438.75659 445.60809 452.45963 458.74258 461.47955 468.25528 471.08878 474.41504 481.26657 484.59283 488.01556 494.8671 498.19336 505.04489 511.89639 516.20825 522.98395 525.72095 529.14368">8 - 11:40Estágio SupervisionadoCálculo Diferencial e Integral 2</tspan></text>
</g><g
       id="g166"><text
         id="text170"
         style="font-variant:normal;font-weight:normal;font-size:12.31949997px;font-family:F1;-inkscape-font-specification:F1;writing-mode:lr-tb;fill:#ffffff;fill-opacity:1;fill-rule:nonzero;stroke:none"
         transform="translate(28.16,345.92001)"><tspan
           id="tspan168"
           y="0"
           x="0 6.8515186 13.703037 17.12579 21.314419 24.640684 31.492203 38.343723 41.766472 48.617992 66.604462 74.735329 77.472328 83.63208 87.054832 93.906349 104.37793 111.15365 117.4366 120.76286 129.7561 132.49309 138.77605 142.10231 146.29094 149.02794 155.80367 162.65518 166.07793 172.92944 179.78096 256.16187 265.74435 272.59589 276.01865 282.87015 286.19641 288.93341 295.21637 878.17511 886.39209 890.58075 897.43225 900.16925 907.02075 910.34705 917.19855 920.62134 927.47284 934.32434 937.74713 947.32959 951.51825 958.36975 965.22125 972.07281 978.92432 985.33044 992.1062 998.9577 1002.3804">14 - 17:40Sistemas DistribuídosOptativaProjeto de Graduação 1</tspan></text>
</g><g
       id="g172"><text
         id="text176"
         style="font-variant:normal;font-weight:normal;font-size:12.31949997px;font-family:F1;-inkscape-font-specification:F1;writing-mode:lr-tb;fill:#ffffff;fill-opacity:1;fill-rule:nonzero;stroke:none"
         transform="translate(28.16,362.23999)"><tspan
           id="tspan174"
           y="0"
           x="0 6.8515186 13.703037 17.12579 21.314419 24.640684 31.492203 38.343723 41.766472 48.617992">19 - 22:40</tspan></text>
</g><g
       id="g178"><text
         id="text182"
         style="font-variant:normal;font-weight:normal;font-size:12.31949997px;font-family:F1;-inkscape-font-specification:F1;writing-mode:lr-tb;fill:#ffffff;fill-opacity:1;fill-rule:nonzero;stroke:none"
         transform="translate(31.68,394.88)"><tspan
           id="tspan180"
           y="0"
           x="0 6.8515186 10.27427 14.37676 17.703026 24.554544 31.576658 34.902924 41.754444">8 - 11:40</tspan></text>
</g><g
       id="g184"><text
         id="text188"
         style="font-variant:normal;font-weight:normal;font-size:12.31949997px;font-family:F1;-inkscape-font-specification:F1;writing-mode:lr-tb;fill:#ffffff;fill-opacity:1;fill-rule:nonzero;stroke:none"
         transform="translate(28.16,411.20001)"><tspan
           id="tspan186"
           y="0"
           x="0 6.8515186 13.703037 17.12579 21.314419 24.640684 31.492203 38.343723 41.766472 48.617992 198.17673 207.16995 214.02147 216.85497 223.01471 229.86623 232.60323 239.45474 242.8775 251.00836 257.85989 261.28265 268.13416 272.32278 275.05978 281.91132 284.64832 287.97458 294.82608 298.24884 307.83133 311.15759 313.89459 324.36618 327.10318 333.13974 339.99124 346.2742 353.1257 878.1828 886.39984 890.58844 897.43994 900.17694 907.0285 910.35474 917.20624 920.62903 927.48053 934.33203 937.75482 947.33728 951.52594 958.37744 965.229 972.08051 978.93201 985.21497 992.06647 999.08856 1002.4149">14 - 17:40Cálculo Vetorial e OtimizaçãoProjeto de Graduação 2</tspan></text>
</g><g
       id="g190"><g
         clip-path="url(#clipPath196)"
         id="g192"><text
           id="text200"
           style="font-variant:normal;font-weight:normal;font-size:12.31949997px;font-family:F1;-inkscape-font-specification:F1;writing-mode:lr-tb;fill:#ffffff;fill-opacity:1;fill-rule:nonzero;stroke:none"
           transform="translate(28.16,426.88)"><tspan
             id="tspan198"
             y="0"
             x="0 6.8515186 13.703037 17.12579 21.314419 24.640684 31.492203 38.343723 41.766472 48.617992">19 - 22:40</tspan></text>
</g></g><g
       id="g202"><g
         clip-path="url(#clipPath208)"
         id="g204"><text
           id="text212"
           style="font-variant:normal;font-weight:normal;font-size:12.31949997px;font-family:F1;-inkscape-font-specification:F1;writing-mode:lr-tb;fill:#ffffff;fill-opacity:1;fill-rule:nonzero;stroke:none"
           transform="translate(923.03998,426.88)"><tspan
             id="tspan210"
             y="0"
             x="0 8.9932346 15.844754 18.581753 24.741503 31.593021 34.426506 41.278027 44.60429 53.597527 60.449043 70.920616 77.772141 81.96077 84.697769 90.857513">Cálculo Numérico</tspan></text>
</g></g><g
       id="g214"><text
         id="text218"
         style="font-variant:normal;font-weight:normal;font-size:12.31949997px;font-family:F1;-inkscape-font-specification:F1;writing-mode:lr-tb;fill:#ffffff;fill-opacity:1;fill-rule:nonzero;stroke:none"
         transform="translate(534.40002,378.56)"><tspan
           id="tspan216"
           y="0"
           x="0 6.8515186 13.703037 20.554556 27.576672 30.902937 35.091568 38.417831">2020 - 2</tspan></text>
</g><g
       id="g220"><text
         id="text224"
         style="font-variant:normal;font-weight:normal;font-size:12.31949997px;font-family:F1;-inkscape-font-specification:F1;writing-mode:lr-tb;fill:#ffffff;fill-opacity:1;fill-rule:nonzero;stroke:none"
         transform="translate(534.40002,117.44)"><tspan
           id="tspan222"
           y="0"
           x="0 6.8515186 13.703037 20.554556 27.576672 30.902937 35.091568 38.417831">2018 - 2</tspan></text>
</g><g
       id="g226"><text
         id="text230"
         style="font-variant:normal;font-weight:normal;font-size:12.31949997px;font-family:F2;-inkscape-font-specification:F2;writing-mode:lr-tb;fill:#ffffff;fill-opacity:1;fill-rule:nonzero;stroke:none"
         transform="translate(481.12,84.800003)"><tspan
           id="tspan228"
           y="0"
           x="0 8.1308699 11.553621 18.40514 25.930382 32.781902 35.98497 42.836491 53.790497 60.642017 68.167259 72.355888 79.881126 83.207397 90.732635 97.584152 100.91042 109.90366 117.42889 122.22315 129.07468 133.86893 137.29169 144.81693">Planejamento de Horários</tspan></text>
</g><g
       id="g232"><text
         id="text236"
         style="font-variant:normal;font-weight:normal;font-size:12.31949997px;font-family:F1;-inkscape-font-specification:F1;writing-mode:lr-tb;fill:#ffffff;fill-opacity:1;fill-rule:nonzero;stroke:none"
         transform="translate(534.40002,182.72)"><tspan
           id="tspan234"
           y="0"
           x="0 6.8515186 13.703037 20.554556 27.576672 30.902937 35.091568 38.417831">2019 - 1</tspan></text>
</g><g
       id="g238"><text
         id="text242"
         style="font-variant:normal;font-weight:normal;font-size:12.31949997px;font-family:F1;-inkscape-font-specification:F1;writing-mode:lr-tb;fill:#ffffff;fill-opacity:1;fill-rule:nonzero;stroke:none"
         transform="translate(534.40002,248)"><tspan
           id="tspan240"
           y="0"
           x="0 6.8515186 13.703037 20.554556 27.576672 30.902937 35.091568 38.417831">2019 - 2</tspan></text>
</g><g
       id="g244"><text
         id="text248"
         style="font-variant:normal;font-weight:normal;font-size:12.31949997px;font-family:F1;-inkscape-font-specification:F1;writing-mode:lr-tb;fill:#ffffff;fill-opacity:1;fill-rule:nonzero;stroke:none"
         transform="translate(534.40002,313.28)"><tspan
           id="tspan246"
           y="0"
           x="0 6.8515186 13.703037 20.554556 27.576672 30.902937 35.091568 38.417831">2020 - 1</tspan></text>
</g><g
       id="g250"><path
         id="path252"
         style="fill:#000000;fill-opacity:1;fill-rule:evenodd;stroke:none"
         d="m 23.68,71.68 h 2.08 v 361.6 h -2.08 z m 1063.52,2.080002 h 2.08 V 433.28 h -2.08 z" /></g><g
       id="g254"><path
         id="path256"
         style="fill:#000000;fill-opacity:1;fill-rule:evenodd;stroke:none"
         d="m 25.76,71.68 h 1063.52 v 2.080002 H 25.76 Z m 0,359.52001 H 1089.28 V 433.28 H 25.76 Z" /></g></g></svg>
